<svg width="100%" viewBox="0 0 680 383" role="img" xmlns="http://www.w3.org/2000/svg"><title>Kanal-Banner Embered Ages</title><desc>Cinematischer Nacht-Banner: antike Ruinen und ein Torbogen in Silhouette, warmer Feuerschein am Horizont, aufsteigende Funken, mittig das Ember-Logo mit Schriftzug und Tagline.</desc>
<defs>
<linearGradient id="sky" x1="0" y1="0" x2="0" y2="1">
<stop offset="0%" stop-color="#080a12"/>
<stop offset="52%" stop-color="#140f1b"/>
<stop offset="78%" stop-color="#2a1712"/>
<stop offset="100%" stop-color="#180d09"/>
</linearGradient>
<radialGradient id="pool" cx="50%" cy="60%" r="46%">
<stop offset="0%" stop-color="#FF8A2E" stop-opacity="0.42"/>
<stop offset="55%" stop-color="#FF7A18" stop-opacity="0.12"/>
<stop offset="100%" stop-color="#FF7A18" stop-opacity="0"/>
</radialGradient>
<radialGradient id="flame2" cx="50%" cy="64%" r="62%">
<stop offset="0%" stop-color="#FFF6D8"/>
<stop offset="34%" stop-color="#FFC24D"/>
<stop offset="68%" stop-color="#FF7A18"/>
<stop offset="100%" stop-color="#B83C0C"/>
</radialGradient>
</defs>
<rect x="0" y="0" width="680" height="383" fill="url(#sky)"/>
<ellipse cx="340" cy="228" rx="310" ry="125" fill="url(#pool)"/>
<circle cx="120" cy="55" r="1" fill="#cfd6e8" fill-opacity="0.5"/>
<circle cx="180" cy="40" r="1.2" fill="#cfd6e8" fill-opacity="0.7"/>
<circle cx="250" cy="68" r="1" fill="#cfd6e8" fill-opacity="0.6"/>
<circle cx="330" cy="38" r="1.1" fill="#cfd6e8" fill-opacity="0.6"/>
<circle cx="430" cy="50" r="1" fill="#cfd6e8" fill-opacity="0.6"/>
<circle cx="500" cy="72" r="1.2" fill="#cfd6e8" fill-opacity="0.7"/>
<circle cx="560" cy="44" r="1" fill="#cfd6e8" fill-opacity="0.5"/>
<circle cx="610" cy="90" r="1.1" fill="#cfd6e8" fill-opacity="0.6"/>
<circle cx="80" cy="95" r="1" fill="#cfd6e8" fill-opacity="0.5"/>
<circle cx="390" cy="84" r="0.9" fill="#cfd6e8" fill-opacity="0.5"/>
<g fill="#0a0810">
<rect x="100" y="222" width="11" height="85"/>
<rect x="126" y="210" width="12" height="97"/>
<rect x="98" y="210" width="42" height="8"/>
<rect x="152" y="248" width="10" height="60"/>
<rect x="520" y="210" width="12" height="98"/>
<rect x="575" y="210" width="12" height="98"/>
<rect x="602" y="226" width="10" height="82"/>
</g>
<path d="M520,210 A33.5 33.5 0 0 1 587,210" fill="none" stroke="#0a0810" stroke-width="12"/>
<circle cx="150" cy="180" r="2" fill="#FFB155" fill-opacity="0.8"/>
<circle cx="165" cy="150" r="1.5" fill="#FFC062" fill-opacity="0.7"/>
<circle cx="135" cy="208" r="2.2" fill="#FF8A2E" fill-opacity="0.8"/>
<circle cx="172" cy="128" r="1.3" fill="#FFC062" fill-opacity="0.6"/>
<circle cx="540" cy="198" r="1.6" fill="#FFB155" fill-opacity="0.75"/>
<circle cx="560" cy="158" r="1.8" fill="#FFC062" fill-opacity="0.7"/>
<circle cx="515" cy="212" r="2.2" fill="#FF8A2E" fill-opacity="0.8"/>
<circle cx="600" cy="188" r="1.5" fill="#FFB155" fill-opacity="0.7"/>
<circle cx="588" cy="138" r="1.2" fill="#FFC062" fill-opacity="0.6"/>
<circle cx="95" cy="236" r="1.8" fill="#FF8A2E" fill-opacity="0.7"/>
<ellipse cx="340" cy="190" rx="186" ry="74" fill="#0c0a12" fill-opacity="0.45"/>
<circle cx="243" cy="187" r="39" fill="#15101b"/>
<circle cx="243" cy="189" r="28" fill="url(#pool)"/>
<path d="M227,204 C230,213 236,217 243,217 C250,217 256,213 259,204 Z" fill="#221a14" stroke="#C99A3A" stroke-width="1"/>
<ellipse cx="243" cy="204" rx="16" ry="4" fill="#3b2d20" stroke="#C99A3A" stroke-width="1.2"/>
<path d="M236,203 C232,191 237,180 241,169 C242,165 243,162 243,159 C244,165 246,171 248,179 C252,190 251,197 250,203 C246,208 240,208 236,203 Z" fill="url(#flame2)"/>
<ellipse cx="243" cy="191" rx="3" ry="7" fill="#FFF7DC" fill-opacity="0.85"/>
<circle cx="250" cy="166" r="1.4" fill="#FFCF7A" fill-opacity="0.9"/>
<circle cx="237" cy="160" r="1.1" fill="#FFCF7A" fill-opacity="0.8"/>
<circle cx="243" cy="187" r="39" fill="none" stroke="#C99A3A" stroke-width="1.6"/>
<circle cx="243" cy="187" r="33" fill="none" stroke="#C99A3A" stroke-opacity="0.5" stroke-width="0.6"/>
<text x="300" y="190" text-anchor="start" font-family="Georgia, 'Times New Roman', serif" font-size="29" font-weight="500" letter-spacing="1.2" fill="#E8C079">Embered Ages</text>
<text x="340" y="222" text-anchor="middle" font-family="Helvetica, Arial, sans-serif" font-size="11" letter-spacing="1.6" fill="#C7B188">History, brought to life by firelight</text>
</svg>
